# xmcd
#
# Track frame offsets: 
#        150
#        3626
#        19143
#        33276
#        50476
#        64753
#        81372
#        95509
#        116093
#        135603
#        154456
#        180997
#
# Disc length: 2701 seconds
#
# Revision: 4
# Processed by: cddbd v1.5.2PL0 Copyright (c) Steve Scherf et al.
# Submitted via: ExactAudioCopy v1.0b3
#
DISCID=9c0a8b0c
DTITLE=Mary Mary - The Sound
DYEAR=2008
DGENRE=Soul
TTITLE0=Intro (Feat. Deborah Joy Imani Winans)
TTITLE1=The Sound
TTITLE2=Get Up
TTITLE3=Superfriend (Feat. David Banner)
TTITLE4=God In Me (Feat. Kierra "Kiki" Sheard)
TTITLE5=Boom
TTITLE6=I'm Running
TTITLE7=Forgiven Me
TTITLE8=Dirt
TTITLE9=Seattle
TTITLE10=I Worship You
TTITLE11=It Will All Be Worth It
EXTD=
EXTT0=
EXTT1=
EXTT2=
EXTT3=
EXTT4=
EXTT5=
EXTT6=
EXTT7=
EXTT8=
EXTT9=
EXTT10=
EXTT11=
PLAYORDER=
